<?xml version="1.0" encoding="iso-8859-1"?>
<!-- Generator: Adobe Illustrator 19.0.0, SVG Export Plug-In . SVG Version: 6.00 Build 0)  -->
<svg version="1.1" id="Layer_1" xmlns="http://www.w3.org/2000/svg" xmlns:xlink="http://www.w3.org/1999/xlink" x="0px" y="0px"
	 viewBox="0 0 512 512" style="enable-background:new 0 0 512 512;" xml:space="preserve">
<g transform="translate(1 1)">
	<path style="fill:#FFFFFF;" d="M192.707,496.493L17.773,321.56c-8.533-8.533-8.533-22.187,0-30.72L265.24,41.667h198.827v207.36
		l-240.64,247.467C214.893,504.173,201.24,504.173,192.707,496.493L192.707,496.493z"/>
	<path style="fill:#0096E6;" d="M208.067,511c-7.68,0-15.36-3.413-21.333-8.533L11.8,327.533C5.827,321.56,3.267,313.88,3.267,306.2
		s3.413-15.36,8.533-21.333L261.827,33.133H472.6V252.44L229.4,502.467C223.427,507.587,215.747,511,208.067,511z M268.653,50.2
		L24.6,296.813c-2.56,2.56-4.267,5.973-4.267,9.387c0,3.413,1.707,6.827,3.413,9.387L198.68,490.52c5.12,5.12,13.653,5.12,18.773,0
		l238.08-244.907V50.2H268.653z"/>
	<path style="fill:#D0E8F9;" d="M99.693,208.92l-81.92,81.92c-8.533,8.533-8.533,22.187,0,30.72l174.933,174.933
		c8.533,8.533,22.187,8.533,30.72,0l81.067-82.773L99.693,208.92L99.693,208.92z"/>
	<path style="fill:#0096E6;" d="M208.067,511c-7.68,0-15.36-3.413-21.333-8.533L11.8,327.533C5.827,321.56,3.267,313.88,3.267,306.2
		s3.413-15.36,8.533-21.333l87.893-87.893L316.44,413.72l-87.04,88.747C223.427,507.587,215.747,511,208.067,511z M99.693,220.867
		L24.6,296.813c-2.56,2.56-4.267,5.973-4.267,9.387c0,3.413,1.707,6.827,3.413,9.387L198.68,490.52c5.12,5.12,13.653,5.12,18.773,0
		l75.093-76.8L99.693,220.867z"/>
	<path style="fill:#D0E8F9;" d="M412.867,127c0,18.773-15.36,34.133-34.133,34.133S344.6,145.773,344.6,127
		s15.36-34.133,34.133-34.133S412.867,108.227,412.867,127L412.867,127z"/>
	<g>
		<path style="fill:#0096E6;" d="M378.733,169.667c-23.893,0-42.667-18.773-42.667-42.667s18.773-42.667,42.667-42.667
			c23.893,0,42.667,18.773,42.667,42.667S402.627,169.667,378.733,169.667z M378.733,101.4c-14.507,0-25.6,11.093-25.6,25.6
			s11.093,25.6,25.6,25.6c14.507,0,25.6-11.093,25.6-25.6S393.24,101.4,378.733,101.4z"/>
		<path style="fill:#0096E6;" d="M378.733,135.533c-2.56,0-4.267-0.853-5.973-2.56c-3.413-3.413-3.413-8.533,0-11.947L492.227,1.56
			c3.413-3.413,8.533-3.413,11.947,0c3.413,3.413,3.413,8.533,0,11.947L384.707,132.973C383,134.68,381.293,135.533,378.733,135.533
			z"/>
	</g>
</g>
<g>
</g>
<g>
</g>
<g>
</g>
<g>
</g>
<g>
</g>
<g>
</g>
<g>
</g>
<g>
</g>
<g>
</g>
<g>
</g>
<g>
</g>
<g>
</g>
<g>
</g>
<g>
</g>
<g>
</g>
</svg>
